<?xml version="1.0" encoding="UTF-8" standalone="no"?>
<svg
   xmlns:dc="http://purl.org/dc/elements/1.1/"
   xmlns:cc="http://creativecommons.org/ns#"
   xmlns:rdf="http://www.w3.org/1999/02/22-rdf-syntax-ns#"
   xmlns:svg="http://www.w3.org/2000/svg"
   xmlns="http://www.w3.org/2000/svg"
   viewBox="0 0 1314.2679 324.00134"
   height="324.00134"
   width="1314.2679"
   xml:space="preserve"
   id="svg2"
   version="1.1"><metadata
     id="metadata8"><rdf:RDF><cc:Work
         rdf:about=""><dc:format>image/svg+xml</dc:format><dc:type
           rdf:resource="http://purl.org/dc/dcmitype/StillImage" /></cc:Work></rdf:RDF></metadata><defs
     id="defs6"><clipPath
       id="clipPath18"
       clipPathUnits="userSpaceOnUse"><path
         id="path16"
         d="M 0,243.001 H 985.701 V 0 H 0 Z" /></clipPath></defs><g
     transform="matrix(1.3333333,0,0,-1.3333333,0,324.00133)"
     id="g10"><g
       id="g12"><g
         clip-path="url(#clipPath18)"
         id="g14"><g
           transform="translate(130.7605,52.3032)"
           id="g20"><path
             id="path22"
             style="fill:#6a9ab6;fill-opacity:1;fill-rule:nonzero;stroke:none"
             d="M 0,0 C 0.338,-3.216 2.028,-5.515 5.267,-7.078 0.555,-8.2 -3.749,-9.279 -8.079,-10.245 c -8.941,-1.993 -17.954,-3.608 -27.046,-4.733 -12.814,-1.585 -25.668,-2.381 -38.574,-1.427 -9.97,0.736 -19.777,2.345 -29.105,6.146 -6.496,2.648 -12.379,6.221 -16.959,11.655 -5.586,6.628 -7.662,14.32 -6.815,22.873 0.841,8.493 4.088,16.138 8.298,23.438 5.678,9.848 12.912,18.48 20.859,26.542 13.049,13.238 27.695,24.5 43.168,34.726 9.989,6.602 20.322,12.626 30.89,18.249 0.494,0.263 1.003,0.496 1.852,0.913 -0.305,-0.641 -0.449,-0.962 -0.608,-1.276 -1.809,-3.563 -3.663,-7.105 -5.404,-10.701 -0.457,-0.943 -1.114,-1.542 -1.935,-2.086 -10.089,-6.687 -19.72,-13.972 -28.743,-22.045 -9.509,-8.508 -18.234,-17.73 -25.448,-28.3 -5.031,-7.372 -9.195,-15.168 -11.35,-23.908 -1.679,-6.816 -1.87,-13.609 0.611,-20.285 2.272,-6.114 6.371,-10.794 11.722,-14.43 5.969,-4.055 12.64,-6.375 19.636,-7.851 9.878,-2.084 19.869,-2.402 29.918,-1.86 10.832,0.585 21.515,2.192 32.1,4.518 C -0.74,-0.027 -0.454,-0.037 0,0" /></g><g
           transform="translate(200.7727,68.8582)"
           id="g24"><path
             id="path26"
             style="fill:#6a9ab6;fill-opacity:1;fill-rule:nonzero;stroke:none"
             d="m 0,0 c 1.08,2.751 2.234,5.476 3.216,8.261 0.806,2.285 2.257,3.701 4.423,4.855 17.23,9.179 33.495,19.827 48.461,32.403 11.537,9.694 22.088,20.321 30.63,32.81 5.038,7.367 9.187,15.174 11.326,23.919 1.378,5.637 1.757,11.312 0.354,17.004 -1.873,7.604 -6.379,13.332 -12.768,17.68 -5.918,4.028 -12.547,6.307 -19.478,7.795 -8.619,1.852 -17.359,2.282 -26.143,2.047 -1.194,-0.032 -2.128,0.201 -3.099,1.021 -4.506,3.806 -11.179,3.727 -15.378,-0.667 -1.655,-1.732 -3.475,-2.552 -5.792,-2.803 -2.889,-0.314 -5.709,-1.267 -8.752,-0.858 0.468,1.727 0.936,3.451 1.446,5.334 4.132,0.812 8.27,1.67 12.425,2.434 9.466,1.742 18.999,2.99 28.604,3.637 14.459,0.975 28.851,0.708 43.049,-2.608 6.723,-1.569 13.168,-3.883 19.053,-7.574 5.286,-3.314 9.681,-7.503 12.567,-13.111 3.213,-6.242 3.885,-12.866 2.765,-19.718 -1.565,-9.575 -5.817,-18.022 -11.091,-26.014 C 109.089,75.649 100.9,66.702 91.981,58.407 74.948,42.566 55.94,29.451 35.822,17.877 24.852,11.566 13.6,5.801 2.098,0.523 1.529,0.262 0.954,0.015 0.381,-0.239 0.254,-0.16 0.127,-0.08 0,0" /></g><g
           transform="translate(223.2287,152.4763)"
           id="g28"><path
             id="path30"
             style="fill:#8fc946;fill-opacity:1;fill-rule:nonzero;stroke:none"
             d="m 0,0 h -10.589 c -0.107,0.338 -0.223,0.65 -0.304,0.97 -2.868,11.444 -8.39,21.255 -17.786,28.624 -6.469,5.073 -13.905,7.858 -22.023,8.861 -8.465,1.047 -16.822,0.583 -24.934,-2.211 -11.523,-3.968 -19.733,-11.746 -25.354,-22.413 -2.277,-4.321 -3.945,-8.876 -5.019,-13.767 h -10.685 c 0.631,3.56 1.712,6.974 2.988,10.328 3.72,9.78 9.098,18.472 16.932,25.516 8.258,7.425 17.985,11.649 28.938,13.16 8.787,1.212 17.493,0.858 26.053,-1.549 12.648,-3.556 22.459,-11.104 30.038,-21.688 C -6.493,18.497 -2.792,10.413 -0.369,1.736 -0.217,1.192 -0.132,0.63 0,0" /></g><g
           transform="translate(190.3461,52.7548)"
           id="g32"><path
             id="path34"
             style="fill:#8fc946;fill-opacity:1;fill-rule:nonzero;stroke:none"
             d="m 0,0 h -51.645 c -2.917,17.878 -9.132,34.452 -19.378,49.637 h 10.79 C -50.431,37.813 -45.364,23.85 -43.102,8.625 h 34.524 c 0.335,2.012 0.62,4.039 1.016,6.045 2.24,11.37 6.516,21.893 13.119,31.45 0.698,1.01 1.467,1.574 2.724,1.747 3.343,0.459 6.664,1.072 9.995,1.618 0.257,0.042 0.522,0.039 0.966,0.07 C 8.422,34.663 0.63,18.784 0,0" /></g><g
           transform="translate(164.5984,37.5654)"
           id="g36"><path
             id="path38"
             style="fill:#8fc946;fill-opacity:1;fill-rule:nonzero;stroke:none"
             d="m 0,0 c -6.015,0 -12.03,-0.002 -18.045,0.001 -2.474,0.002 -4.336,1.058 -5.31,3.359 -1.359,3.208 0.861,6.78 4.409,7.204 0.396,0.048 0.801,0.037 1.201,0.037 11.916,10e-4 23.831,0.005 35.747,-0.002 2.792,-0.002 4.764,-1.228 5.61,-3.432 C 24.915,3.777 22.494,0.194 18.732,0.021 17.017,-0.059 15.295,0 13.577,0 9.051,-0.001 4.526,0 0,0" /></g><g
           transform="translate(164.7049,22.7805)"
           id="g40"><path
             id="path42"
             style="fill:#8fc946;fill-opacity:1;fill-rule:nonzero;stroke:none"
             d="m 0,0 c -4.412,-0.001 -8.825,-0.004 -13.237,0.003 -0.572,0.001 -1.155,-0.015 -1.713,0.085 -2.691,0.485 -4.593,2.872 -4.434,5.514 0.158,2.646 2.298,4.801 5.033,4.971 1.371,0.085 2.75,0.028 4.125,0.028 7.966,10e-4 15.931,-0.001 23.896,10e-4 2.477,10e-4 4.345,-1.04 5.319,-3.343 C 20.463,3.774 17.88,0.067 13.925,0.015 9.284,-0.046 4.642,0.001 0,0" /></g><g
           transform="translate(100.5624,213.8923)"
           id="g44"><path
             id="path46"
             style="fill:#8fc946;fill-opacity:1;fill-rule:nonzero;stroke:none"
             d="m 0,0 c 1.048,-0.019 2.195,-0.474 3.155,-1.369 5.404,-5.034 10.829,-10.045 16.19,-15.125 2.173,-2.059 2.151,-5.168 0.118,-7.399 -2.022,-2.218 -5.174,-2.512 -7.376,-0.494 C 6.6,-19.36 1.168,-14.271 -4.243,-9.162 -5.918,-7.58 -6.2,-5.594 -5.361,-3.476 -4.549,-1.427 -2.413,0.002 0,0" /></g><g
           transform="translate(235.6808,207.3752)"
           id="g48"><path
             id="path50"
             style="fill:#8abf35;fill-opacity:1;fill-rule:nonzero;stroke:none"
             d="m 0,0 c -0.033,-1.341 -0.636,-2.634 -1.767,-3.729 -5.142,-4.973 -10.253,-9.979 -15.401,-14.946 -2.149,-2.072 -4.954,-2.072 -7.069,-0.085 -2.142,2.014 -2.426,5.279 -0.64,7.455 0.218,0.264 0.466,0.505 0.712,0.744 5.048,4.906 10.107,9.801 15.14,14.722 1.643,1.607 3.485,2.132 5.636,1.232 C -1.394,4.558 -0.017,2.417 0,0" /></g><g
           transform="translate(169.0325,210.116)"
           id="g52"><path
             id="path54"
             style="fill:#8fc946;fill-opacity:1;fill-rule:nonzero;stroke:none"
             d="m 0,0 h -10.313 c -0.095,0.539 -0.324,1.239 -0.326,1.939 -0.027,7.214 -0.039,14.427 -0.006,21.641 0.015,3.099 2.422,5.348 5.54,5.304 3.059,-0.043 5.368,-2.254 5.382,-5.29 C 0.312,16.381 0.295,9.167 0.277,1.953 0.275,1.348 0.11,0.743 0,0" /></g><g
           transform="translate(199.2929,120.0735)"
           id="g56"><path
             id="path58"
             style="fill:#828282;fill-opacity:1;fill-rule:nonzero;stroke:none"
             d="m 0,0 c -4.676,0.034 -8.541,3.903 -8.548,8.557 -0.007,4.849 3.906,8.681 8.808,8.625 C 4.96,17.129 8.69,13.308 8.683,8.554 8.675,3.775 4.808,-0.035 0,0" /></g><g
           transform="translate(128.0162,137.2572)"
           id="g60"><path
             id="path62"
             style="fill:#828282;fill-opacity:1;fill-rule:nonzero;stroke:none"
             d="m 0,0 c 4.771,-0.02 8.627,-3.931 8.571,-8.693 -0.055,-4.664 -3.933,-8.487 -8.614,-8.492 -4.787,-0.006 -8.674,3.878 -8.63,8.622 C -8.629,-3.738 -4.823,0.02 0,0" /></g><g
           transform="translate(141.8707,206.6344)"
           id="g64"><path
             id="path66"
             style="fill:#8fc946;fill-opacity:1;fill-rule:nonzero;stroke:none"
             d="m 0,0 c -3.164,-1.374 -6.183,-2.684 -9.401,-4.082 -0.291,0.441 -0.67,0.916 -0.943,1.445 -1.938,3.753 -3.876,7.507 -5.769,11.283 -1.44,2.873 -0.468,5.857 2.3,7.264 2.795,1.422 5.732,0.469 7.231,-2.41 C -4.63,9.754 -2.715,5.989 -0.817,2.215 -0.468,1.521 -0.272,0.749 0,0" /></g><g
           transform="translate(193.8731,203.9591)"
           id="g68"><path
             id="path70"
             style="fill:#8fc946;fill-opacity:1;fill-rule:nonzero;stroke:none"
             d="m 0,0 c -3.333,1.24 -6.468,2.406 -9.781,3.639 0.223,0.685 0.354,1.417 0.685,2.044 2.026,3.842 4.043,7.69 6.17,11.476 C -0.845,20.863 4.58,20.82 6.72,17.138 7.481,15.83 7.76,14.405 7.042,13.036 4.841,8.836 2.558,4.678 0.305,0.505 0.198,0.305 0.07,0.116 0,0" /></g><g
           transform="translate(123.7512,148.6019)"
           id="g72"><path
             id="path74"
             style="fill:#6a9ab4;fill-opacity:1;fill-rule:nonzero;stroke:none"
             d="m 0,0 c -4.897,-0.458 -9.804,-0.824 -14.686,-1.406 -3.238,-0.387 -6.428,-1.125 -9.378,-2.625 -2.728,-1.388 -4.594,-3.523 -4.873,-6.61 -0.215,-2.381 -0.162,-4.817 0.069,-7.2 0.475,-4.917 1.749,-9.676 3.283,-14.363 2.193,-6.7 6.457,-11.223 13.52,-12.767 3.988,-0.871 8.017,-1.295 12.101,-0.952 9.007,0.757 16.259,4.598 20.999,12.438 2.789,4.613 4.893,9.594 6.242,14.831 0.437,1.693 0.519,3.512 0.529,5.274 0.013,2.455 -0.88,4.67 -2.829,6.198 -1.602,1.257 -3.332,2.466 -5.192,3.256 C 13.488,-1.253 6.868,-0.075 0,0 m 83.06,-46.099 c 1.946,0.295 4.966,0.613 7.924,1.231 5.919,1.238 10.132,4.736 12.346,10.345 1.277,3.235 2.209,6.621 3.083,9.994 1.051,4.057 1.434,8.208 1.35,12.417 -0.083,4.091 -2.023,6.879 -5.695,8.381 -2.156,0.883 -4.438,1.672 -6.731,1.964 -5.386,0.686 -10.804,1.223 -16.225,1.498 -7.132,0.362 -14.023,-1.002 -20.596,-3.804 -3,-1.279 -5.709,-2.978 -7.008,-6.204 -1.029,-2.554 -0.784,-5.177 -0.22,-7.77 1.067,-4.91 3.148,-9.451 5.483,-13.848 5.351,-10.075 14.196,-14.092 26.289,-14.204 M -43.323,0.968 c 3.253,0.654 6.163,1.251 9.077,1.821 5.445,1.065 10.877,2.214 16.346,3.14 5.277,0.893 10.626,0.874 15.931,0.321 C 3.489,5.681 8.935,4.928 14.351,4.042 18.583,3.349 22.763,2.336 26.964,1.456 32.554,0.284 38.224,-0.121 43.88,0.451 49.052,0.974 54.182,1.944 59.313,2.814 65.01,3.78 70.671,4.965 76.378,5.856 83.382,6.95 90.383,6.724 97.414,5.7 c 5.859,-0.853 11.529,-2.42 17.254,-3.805 1.056,-0.255 2.138,-0.401 3.193,-0.66 2.139,-0.525 3.074,-1.688 3.101,-3.912 0.026,-2.175 -0.028,-4.351 -0.032,-6.526 -0.003,-1.038 -0.295,-2.009 -1.18,-2.542 -2.976,-1.793 -3.956,-4.775 -4.8,-7.835 -1.036,-3.752 -1.978,-7.53 -3.01,-11.283 -1.23,-4.47 -3.13,-8.598 -6.292,-12.07 -3.901,-4.283 -8.736,-7.003 -14.308,-8.381 -10.479,-2.59 -20.469,-1.317 -29.8,4.201 -4.661,2.757 -7.872,6.926 -10.513,11.56 -2.338,4.102 -3.898,8.52 -5.307,13.009 -0.526,1.678 -1.303,3.287 -2.075,4.874 -0.528,1.086 -1.441,1.754 -2.739,1.757 -0.743,0.002 -1.486,0.088 -2.229,0.104 -2.459,0.052 -2.926,-0.19 -3.832,-2.558 -0.734,-1.92 -1.4,-3.884 -1.876,-5.881 -1.217,-5.108 -3.784,-9.55 -6.604,-13.878 -2.078,-3.188 -4.568,-6.026 -7.528,-8.422 -4.216,-3.414 -9.098,-5.236 -14.461,-5.779 -7.362,-0.747 -14.641,-0.531 -21.685,2.092 -4.081,1.52 -7.845,3.517 -10.519,7.096 -0.714,0.956 -1.366,1.993 -1.85,3.081 -2.938,6.603 -5.339,13.401 -7.023,20.432 -0.525,2.19 -1.396,4.15 -3.017,5.668 -3.041,2.847 -4.19,6.296 -3.761,10.384 0.153,1.46 0.107,2.941 0.156,4.542" /></g><g
           transform="translate(415.3873,94.7627)"
           id="g76"><path
             id="path78"
             style="fill:#8cc33f;fill-opacity:1;fill-rule:nonzero;stroke:none"
             d="m 0,0 v -12.77 h -60.32 c -10.753,0 -16.13,3.807 -16.13,11.426 0,3.471 1.735,7.561 5.209,12.266 l 55.951,75.273 h -54.943 v 12.77 h 53.767 c 10.528,0 15.794,-3.754 15.794,-11.257 0,-3.81 -2.242,-8.737 -6.721,-14.786 L -61.496,0 Z" /></g><g
           transform="translate(488.9801,117.1094)"
           id="g80"><path
             id="path82"
             style="fill:#8cc33f;fill-opacity:1;fill-rule:nonzero;stroke:none"
             d="m 0,0 9.409,-5.208 c -2.688,-8.963 -6.442,-15.794 -11.257,-20.499 -7.619,-7.282 -16.915,-10.921 -27.892,-10.921 -11.089,0 -20.528,3.835 -28.312,11.509 -7.786,7.672 -11.677,16.997 -11.677,27.975 0,11.09 3.807,20.47 11.425,28.144 7.616,7.672 16.971,11.51 28.06,11.51 15.122,0 26.884,-7.561 35.285,-22.683 l -48.559,-31.756 -5.88,9.745 37.132,24.868 c -4.032,5.15 -10.081,7.728 -18.146,7.728 -7.17,0 -13.19,-2.549 -18.062,-7.644 -4.873,-5.099 -7.309,-11.342 -7.309,-18.735 0,-7.842 2.659,-14.563 7.981,-20.163 5.319,-5.602 11.732,-8.401 19.238,-8.401 9.296,0 16.689,3.638 22.179,10.922 C -3.696,-10.025 -1.57,-5.489 0,0" /></g><g
           transform="translate(504.9425,81.9932)"
           id="g84"><path
             id="path86"
             style="fill:#8cc33f;fill-opacity:1;fill-rule:nonzero;stroke:none"
             d="m 0,0 v 11.762 h 29.908 c 6.944,0 11.257,0.39 12.937,1.176 2.799,1.344 4.201,3.751 4.201,7.225 0,3.807 -2.297,6.495 -6.889,8.065 l -28.396,9.913 c -9.858,3.47 -14.785,9.519 -14.785,18.146 0,13.106 9.295,19.659 27.891,19.659 H 55.279 V 64.185 H 22.851 c -8.291,0 -12.434,-2.747 -12.434,-8.234 0,-3.586 2.353,-6.217 7.057,-7.896 l 26.715,-9.409 c 6.049,-2.13 10.36,-4.651 12.938,-7.562 2.576,-2.914 3.865,-6.778 3.865,-11.594 0,-5.938 -2.243,-10.81 -6.721,-14.617 C 50.349,1.622 44.132,0 35.621,0 Z" /></g><g
           transform="translate(589.9595,146.0098)"
           id="g88"><path
             id="path90"
             style="fill:#8cc33f;fill-opacity:1;fill-rule:nonzero;stroke:none"
             d="m 0,0 v -35.453 c 0,-6.946 1.455,-11.538 4.369,-13.777 2.463,-1.907 6.889,-2.857 13.274,-2.857 h 6.552 v -11.93 H 16.97 c -10.979,0 -18.65,1.849 -23.019,5.545 -4.93,4.143 -7.392,11.649 -7.392,22.515 V 34.78 H 0 V 11.762 H 24.195 V 0 Z" /></g><g
           transform="translate(675.1456,144.665)"
           id="g92"><path
             id="path94"
             style="fill:#8cc33f;fill-opacity:1;fill-rule:nonzero;stroke:none"
             d="m 0,0 h 58.808 c 0,-12.434 -1.234,-22.068 -3.697,-28.899 -3.922,-10.754 -10.753,-19.436 -20.499,-26.043 -9.745,-6.612 -20.556,-9.914 -32.428,-9.914 -16.243,0 -30.02,5.655 -41.333,16.97 -11.315,11.313 -16.97,25.09 -16.97,41.333 0,16.241 5.599,29.935 16.802,41.081 11.2,11.146 24.978,16.719 41.333,16.719 17.249,0 31.924,-5.938 44.022,-17.81 L 35.453,23.523 c -9.745,9.41 -20.78,14.114 -33.1,14.114 -12.324,0 -22.573,-4.174 -30.749,-12.518 -8.178,-8.346 -12.265,-18.792 -12.265,-31.336 0,-12.769 4.116,-23.468 12.349,-32.092 8.233,-8.627 18.454,-12.937 30.665,-12.937 7.729,0 14.812,1.874 21.254,5.629 6.44,3.751 11.397,8.876 14.87,15.374 2.689,5.04 4.256,10.863 4.705,17.473 L 0,-12.77 Z" /></g><g
           transform="translate(811.7466,117.1094)"
           id="g96"><path
             id="path98"
             style="fill:#8cc33f;fill-opacity:1;fill-rule:nonzero;stroke:none"
             d="m 0,0 9.409,-5.208 c -2.688,-8.963 -6.442,-15.794 -11.257,-20.499 -7.619,-7.282 -16.915,-10.921 -27.892,-10.921 -11.089,0 -20.528,3.835 -28.312,11.509 -7.786,7.672 -11.677,16.997 -11.677,27.975 0,11.09 3.807,20.47 11.425,28.144 7.616,7.672 16.971,11.51 28.06,11.51 15.122,0 26.884,-7.561 35.285,-22.683 l -48.559,-31.756 -5.88,9.745 37.132,24.868 c -4.032,5.15 -10.081,7.728 -18.146,7.728 -7.17,0 -13.19,-2.549 -18.062,-7.644 -4.873,-5.099 -7.309,-11.342 -7.309,-18.735 0,-7.842 2.659,-14.563 7.981,-20.163 5.319,-5.602 11.732,-8.401 19.238,-8.401 9.296,0 16.689,3.638 22.179,10.922 C -3.696,-10.025 -1.57,-5.489 0,0" /></g><g
           transform="translate(895.9234,117.1094)"
           id="g100"><path
             id="path102"
             style="fill:#8cc33f;fill-opacity:1;fill-rule:nonzero;stroke:none"
             d="m 0,0 9.41,-5.208 c -2.689,-8.963 -6.443,-15.794 -11.258,-20.499 -7.619,-7.282 -16.915,-10.921 -27.892,-10.921 -11.089,0 -20.528,3.835 -28.312,11.509 -7.786,7.672 -11.677,16.997 -11.677,27.975 0,11.09 3.807,20.47 11.425,28.144 7.616,7.672 16.971,11.51 28.06,11.51 15.122,0 26.884,-7.561 35.285,-22.683 l -48.559,-31.756 -5.88,9.745 37.132,24.868 c -4.032,5.15 -10.081,7.728 -18.146,7.728 -7.17,0 -13.19,-2.549 -18.062,-7.644 -4.873,-5.099 -7.309,-11.342 -7.309,-18.735 0,-7.842 2.659,-14.563 7.981,-20.163 5.319,-5.602 11.732,-8.401 19.238,-8.401 9.296,0 16.689,3.638 22.179,10.922 C -3.696,-10.025 -1.57,-5.489 0,0" /></g><g
           transform="translate(974.5547,81.9932)"
           id="g104"><path
             id="path106"
             style="fill:#8cc33f;fill-opacity:1;fill-rule:nonzero;stroke:none"
             d="m 0,0 h -13.441 v 16.466 c 0,6.944 -1.513,11.817 -4.538,14.618 -3.024,2.799 -8.232,4.2 -15.625,4.2 h -12.77 V 0 h -13.441 v 111.734 h 13.441 V 47.046 h 6.889 c 4.143,0 7.252,0.643 9.325,1.933 2.072,1.286 4.34,4.058 6.806,8.317 l 10.92,18.65 H 2.353 L -10.249,54.943 c -2.242,-3.809 -3.948,-6.33 -5.125,-7.561 -1.176,-1.234 -2.94,-2.465 -5.293,-3.696 C -6.889,40.549 0,31.644 0,16.97 Z" /></g><g
           transform="translate(705.6636,25.5889)"
           id="g108"><path
             id="path110"
             style="fill:#6399bb;fill-opacity:1;fill-rule:nonzero;stroke:none"
             d="m 0,0 v 5.495 h 15.04 c 3.326,0 5.712,0.434 7.158,1.302 2.025,1.253 3.037,3.109 3.037,5.567 0,2.94 -1.808,5.279 -5.423,7.014 L 7.809,25.09 c -5.303,2.506 -7.954,6.242 -7.954,11.208 0,7.856 4.965,11.786 14.895,11.786 H 29.429 V 42.588 H 16.486 c -3.76,0 -6.291,-0.458 -7.592,-1.373 -1.591,-1.157 -2.386,-2.845 -2.386,-5.062 0,-2.651 1.663,-4.749 4.989,-6.291 L 24.15,24.006 C 29.308,21.595 31.887,17.738 31.887,12.437 31.887,4.146 26.898,0 16.92,0 Z" /></g><g
           transform="translate(759.7491,53.3545)"
           id="g112"><path
             id="path114"
             style="fill:#6399bb;fill-opacity:1;fill-rule:nonzero;stroke:none"
             d="m 0,0 c -3.085,0 -5.712,-1.109 -7.881,-3.326 -2.17,-2.218 -3.254,-4.893 -3.254,-8.027 0,-3.133 1.108,-5.82 3.326,-8.061 2.216,-2.241 4.868,-3.362 7.954,-3.362 2.988,0 5.567,1.095 7.736,3.29 2.169,2.192 3.254,4.808 3.254,7.844 0,3.23 -1.073,5.977 -3.218,8.244 C 5.772,-1.133 3.133,0 0,0 m -0.072,5.64 c 4.819,0 8.893,-1.675 12.219,-5.026 3.326,-3.35 4.989,-7.435 4.989,-12.256 0,-4.58 -1.675,-8.52 -5.025,-11.822 -3.351,-3.302 -7.364,-4.952 -12.039,-4.952 -4.725,0 -8.774,1.674 -12.147,5.025 -3.375,3.35 -5.062,7.363 -5.062,12.038 0,4.676 1.675,8.677 5.026,12.003 3.349,3.327 7.362,4.99 12.039,4.99" /></g><path
           id="path116"
           style="fill:#6399bb;fill-opacity:1;fill-rule:nonzero;stroke:none"
           d="m 789.611,25.589 h -5.785 v 48.084 h 5.785 z" /><g
           transform="translate(820.7022,58.2715)"
           id="g118"><path
             id="path120"
             style="fill:#6399bb;fill-opacity:1;fill-rule:nonzero;stroke:none"
             d="m 0,0 h 5.784 v -18.583 c 0,-4.387 -1.301,-7.942 -3.904,-10.665 -2.603,-2.724 -6.002,-4.085 -10.195,-4.085 -4.291,0 -7.726,1.349 -10.304,4.049 -2.579,2.699 -3.868,6.265 -3.868,10.701 V 0 h 5.784 v -17.209 c 0,-3.23 0.602,-5.64 1.808,-7.23 1.638,-2.17 3.807,-3.254 6.507,-3.254 2.989,0 5.279,1.229 6.869,3.687 1.013,1.542 1.519,3.977 1.519,7.303 z" /></g><g
           transform="translate(840.9478,53.1377)"
           id="g122"><path
             id="path124"
             style="fill:#6399bb;fill-opacity:1;fill-rule:nonzero;stroke:none"
             d="m 0,0 v -15.257 c 0,-2.989 0.626,-4.966 1.88,-5.929 1.059,-0.82 2.964,-1.229 5.712,-1.229 h 2.82 v -5.134 H 7.303 c -4.725,0 -8.026,0.795 -9.906,2.386 -2.122,1.783 -3.182,5.014 -3.182,9.689 V 14.967 H 0 V 5.062 H 10.412 V 0 Z" /></g><path
           id="path126"
           style="fill:#6399bb;fill-opacity:1;fill-rule:nonzero;stroke:none"
           d="m 863.001,25.589 h -5.785 v 32.683 h 5.785 z m -3.038,46.421 c 1.205,0 2.206,-0.41 3.001,-1.23 0.796,-0.82 1.193,-1.833 1.193,-3.037 0,-1.109 -0.41,-2.073 -1.229,-2.891 -0.82,-0.821 -1.807,-1.23 -2.965,-1.23 -1.156,0 -2.145,0.409 -2.964,1.23 -0.82,0.818 -1.229,1.807 -1.229,2.963 0,1.158 0.409,2.145 1.229,2.965 0.819,0.82 1.808,1.23 2.964,1.23" /><g
           transform="translate(887.0782,53.3545)"
           id="g128"><path
             id="path130"
             style="fill:#6399bb;fill-opacity:1;fill-rule:nonzero;stroke:none"
             d="m 0,0 c -3.085,0 -5.712,-1.109 -7.881,-3.326 -2.17,-2.218 -3.254,-4.893 -3.254,-8.027 0,-3.133 1.108,-5.82 3.326,-8.061 2.216,-2.241 4.868,-3.362 7.954,-3.362 2.988,0 5.567,1.095 7.736,3.29 2.169,2.192 3.254,4.808 3.254,7.844 0,3.23 -1.073,5.977 -3.218,8.244 C 5.772,-1.133 3.133,0 0,0 m -0.072,5.64 c 4.819,0 8.893,-1.675 12.219,-5.026 3.326,-3.35 4.99,-7.435 4.99,-12.256 0,-4.58 -1.676,-8.52 -5.026,-11.822 -3.351,-3.302 -7.364,-4.952 -12.039,-4.952 -4.725,0 -8.774,1.674 -12.147,5.025 -3.375,3.35 -5.062,7.363 -5.062,12.038 0,4.676 1.675,8.677 5.026,12.003 3.349,3.327 7.362,4.99 12.039,4.99" /></g><g
           transform="translate(939.1387,25.5889)"
           id="g132"><path
             id="path134"
             style="fill:#6399bb;fill-opacity:1;fill-rule:nonzero;stroke:none"
             d="m 0,0 h -5.785 v 17.209 c 0,3.277 -0.627,5.735 -1.88,7.375 -1.639,2.121 -3.784,3.182 -6.435,3.182 -3.037,0 -5.327,-1.23 -6.869,-3.688 -1.012,-1.591 -1.518,-4.002 -1.518,-7.23 V 0 h -5.785 v 18.438 c 0,4.483 1.301,8.098 3.905,10.846 2.602,2.747 6.024,4.121 10.267,4.121 4.242,0 7.652,-1.362 10.231,-4.085 C -1.291,26.597 0,23.018 0,18.583 Z" /></g><g
           transform="translate(947.0919,25.5889)"
           id="g136"><path
             id="path138"
             style="fill:#6399bb;fill-opacity:1;fill-rule:nonzero;stroke:none"
             d="m 0,0 v 5.062 h 12.871 c 2.988,0 4.844,0.167 5.567,0.505 1.205,0.579 1.808,1.615 1.808,3.11 0,1.637 -0.989,2.795 -2.965,3.47 L 5.062,16.413 c -4.243,1.494 -6.364,4.097 -6.364,7.81 0,5.639 4.001,8.46 12.003,8.46 H 23.789 V 27.621 H 9.834 c -3.568,0 -5.351,-1.182 -5.351,-3.543 0,-1.543 1.012,-2.676 3.037,-3.398 l 11.497,-4.049 c 2.603,-0.917 4.458,-2.001 5.567,-3.254 1.108,-1.254 1.663,-2.917 1.663,-4.989 0,-2.556 -0.965,-4.653 -2.892,-6.291 C 21.667,0.698 18.992,0 15.329,0 Z" /></g></g></g></g>
             
<style>
path#path62, path#path58 {
    animation-name: example;
    animation-duration: 4s;
    animation-iteration-count: infinite;

}

@keyframes example {
  0% {transform: translate(7px,0);}
  50% {transform: translate(7px,0);}
  51% {transform: translate(-7px,0);}
  100% {transform: translate(-7px,0);}
}


path#path74 {
    animation: shakeMe 4s infinite ease-in-out;

}

@keyframes shakeMe {
  2%,
  18% {
    transform: translate3d(-5px, -1px, -5)
  }
  4%,
  16% {
    transform: translate3d(5px, 1px, 5)
  }
  6%,
  10%,
  14% {
    transform: translate3d(-5px, -1px, -5px)
  }
  8%,
  12% {
    transform: translate3d(5px, 0, 5px)
  }
  18.1% {
    transform: translate3d(0px, 0, 0px)
  }
}


</style> 
</svg>